<svg xmlns="http://www.w3.org/2000/svg" width="512" height="512" viewBox="0 0 512 512" fill="none">
  <rect width="512" height="512" fill="#151f28"/>
  <g transform="translate(106, 106) scale(0.2)">
    <path fill="#ffffff" d="M 1412.640625 1324.804688 L 1107.644531 796.636719 L 973.167969 1029.820312 L 1210.644531 1441.253906 C 1232.105469 1478.449219 1271.300781 1499.621094 1311.644531 1499.621094 C 1331.386719 1499.621094 1351.414062 1494.472656 1369.726562 1483.886719 C 1425.804688 1451.554688 1444.6875 1380.597656 1412.640625 1324.804688 Z M 1412.640625 1324.804688"/>
    <path fill="#ffffff" d="M 1198.628906 506.515625 L 1069.304688 730.542969 L 934.542969 963.726562 L 726.253906 1324.519531 C 663.878906 1432.671875 547.429688 1499.90625 422.683594 1499.90625 C 295.933594 1499.90625 182.347656 1434.386719 118.828125 1324.519531 C 55.3125 1214.9375 55.3125 1083.609375 118.828125 973.742188 L 483.339844 342.859375 C 521.109375 277.335938 588.917969 238.140625 664.453125 238.140625 C 739.984375 238.140625 807.796875 277.335938 845.847656 342.859375 L 859.011719 365.746094 L 896.777344 430.980469 L 762.015625 664.164062 L 664.453125 495.359375 L 321.113281 1090.191406 C 290.5 1143.121094 310.8125 1190.042969 321.113281 1207.785156 C 331.414062 1225.523438 361.742188 1266.722656 422.96875 1266.722656 C 464.742188 1266.722656 503.941406 1244.121094 524.542969 1207.785156 L 800.070312 730.542969 L 934.832031 497.359375 L 996.632812 390.066406 C 1028.960938 334.273438 1100.203125 315.105469 1155.996094 347.4375 C 1211.789062 379.480469 1230.960938 450.722656 1198.628906 506.515625 Z M 1198.628906 506.515625"/>
    <path fill="#00d9ff" d="M 1141.976562 229.554688 C 1204.351562 370.039062 1412.355469 283.917969 1357.421875 140.289062 C 1294.761719 0.09375 1086.757812 86.214844 1141.976562 229.554688 Z M 1141.976562 229.554688"/>
  </g>
</svg>
